<svg width="135" height="24" viewBox="0 0 135 24" fill="none" xmlns="http://www.w3.org/2000/svg">
<g clip-path="url(#clip0_205_4)">
<path d="M67.4043 11.4263V15.6523C67.2383 15.8525 66.9819 16.0698 66.6353 16.3042C66.2886 16.5337 65.8418 16.7314 65.2949 16.8975C64.748 17.0635 64.0864 17.1465 63.3101 17.1465C62.6216 17.1465 61.9941 17.0342 61.4277 16.8096C60.8613 16.5801 60.373 16.2456 59.9629 15.8062C59.5576 15.3667 59.2451 14.8296 59.0254 14.1948C58.8057 13.5552 58.6958 12.8252 58.6958 12.0049V11.3384C58.6958 10.5181 58.8008 9.78809 59.0107 9.14844C59.2256 8.50879 59.5308 7.96924 59.9263 7.52979C60.3218 7.09033 60.793 6.75586 61.3398 6.52637C61.8867 6.29688 62.4946 6.18213 63.1636 6.18213C64.0913 6.18213 64.853 6.3335 65.4487 6.63623C66.0444 6.93408 66.4985 7.34912 66.811 7.88135C67.1284 8.40869 67.3237 9.01416 67.397 9.69775H65.2656C65.2119 9.33643 65.1094 9.02148 64.958 8.75293C64.8066 8.48438 64.5894 8.27441 64.3062 8.12305C64.0278 7.97168 63.6665 7.896 63.2222 7.896C62.856 7.896 62.5288 7.97168 62.2407 8.12305C61.9575 8.26953 61.7183 8.48682 61.5229 8.7749C61.3276 9.06299 61.1787 9.41943 61.0762 9.84424C60.9736 10.269 60.9224 10.7622 60.9224 11.3237V12.0049C60.9224 12.5615 60.9761 13.0547 61.0835 13.4844C61.1909 13.9092 61.3496 14.2681 61.5596 14.561C61.7744 14.8491 62.0381 15.0664 62.3506 15.2129C62.6631 15.3594 63.0269 15.4326 63.4419 15.4326C63.7886 15.4326 64.0767 15.4033 64.3062 15.3447C64.5405 15.2861 64.7285 15.2153 64.8701 15.1323C65.0166 15.0444 65.1289 14.9614 65.207 14.8833V12.9937H63.2002V11.4263H67.4043ZM70.6416 6.33594L72.8682 11.1992L75.0947 6.33594H77.4897L73.9814 13.1182V17H71.7549V13.1182L68.2393 6.33594H70.6416ZM79.4673 6.33594H81.3276L84.0669 14.1655L86.8062 6.33594H88.6665L84.814 17H83.3198L79.4673 6.33594ZM78.4639 6.33594H80.3169L80.6538 13.9678V17H78.4639V6.33594ZM87.8169 6.33594H89.6772V17H87.48V13.9678L87.8169 6.33594ZM95.7563 13.1987H93.0391V11.4849H95.7563C96.1763 11.4849 96.5181 11.4165 96.7817 11.2798C97.0454 11.1382 97.2383 10.9429 97.3604 10.6938C97.4824 10.4448 97.5435 10.1641 97.5435 9.85156C97.5435 9.53418 97.4824 9.23877 97.3604 8.96533C97.2383 8.69189 97.0454 8.47217 96.7817 8.30615C96.5181 8.14014 96.1763 8.05713 95.7563 8.05713H93.8008V17H91.6035V6.33594H95.7563C96.5913 6.33594 97.3066 6.4873 97.9023 6.79004C98.5029 7.08789 98.9619 7.50049 99.2793 8.02783C99.5967 8.55518 99.7554 9.1582 99.7554 9.83691C99.7554 10.5254 99.5967 11.1211 99.2793 11.624C98.9619 12.127 98.5029 12.5151 97.9023 12.7886C97.3066 13.062 96.5913 13.1987 95.7563 13.1987ZM110.031 11.4189V11.9243C110.031 12.7349 109.921 13.4624 109.702 14.1069C109.482 14.7515 109.172 15.3008 108.771 15.7549C108.371 16.2041 107.893 16.5483 107.336 16.7876C106.784 17.0269 106.171 17.1465 105.498 17.1465C104.829 17.1465 104.216 17.0269 103.659 16.7876C103.107 16.5483 102.629 16.2041 102.224 15.7549C101.818 15.3008 101.503 14.7515 101.279 14.1069C101.059 13.4624 100.949 12.7349 100.949 11.9243V11.4189C100.949 10.6035 101.059 9.87598 101.279 9.23633C101.499 8.5918 101.809 8.04248 102.209 7.58838C102.614 7.13428 103.093 6.7876 103.645 6.54834C104.201 6.30908 104.814 6.18945 105.483 6.18945C106.157 6.18945 106.77 6.30908 107.321 6.54834C107.878 6.7876 108.356 7.13428 108.757 7.58838C109.162 8.04248 109.475 8.5918 109.694 9.23633C109.919 9.87598 110.031 10.6035 110.031 11.4189ZM107.812 11.9243V11.4043C107.812 10.8379 107.761 10.3398 107.658 9.91016C107.556 9.48047 107.404 9.11914 107.204 8.82617C107.004 8.5332 106.76 8.31348 106.472 8.16699C106.184 8.01562 105.854 7.93994 105.483 7.93994C105.112 7.93994 104.782 8.01562 104.494 8.16699C104.211 8.31348 103.969 8.5332 103.769 8.82617C103.574 9.11914 103.425 9.48047 103.322 9.91016C103.22 10.3398 103.168 10.8379 103.168 11.4043V11.9243C103.168 12.4858 103.22 12.9839 103.322 13.4185C103.425 13.8481 103.576 14.2119 103.776 14.5098C103.977 14.8027 104.221 15.0249 104.509 15.1763C104.797 15.3276 105.126 15.4033 105.498 15.4033C105.869 15.4033 106.198 15.3276 106.486 15.1763C106.774 15.0249 107.016 14.8027 107.211 14.5098C107.407 14.2119 107.556 13.8481 107.658 13.4185C107.761 12.9839 107.812 12.4858 107.812 11.9243ZM113.95 6.33594V17H111.76V6.33594H113.95ZM124.687 6.33594V17H122.49L118.205 9.85156V17H116.008V6.33594H118.205L122.497 13.4917V6.33594H124.687ZM131.147 6.33594V17H128.957V6.33594H131.147ZM134.428 6.33594V8.05713H125.727V6.33594H134.428Z" fill="#EE4D64"/>
<path fill-rule="evenodd" clip-rule="evenodd" d="M42.2459 5.35477C41.7505 5.35477 41.2811 5.46801 40.8621 5.6699C40.7577 3.99982 39.3665 2.67298 37.6706 2.67298C37.1743 2.67298 36.7041 2.78659 36.2845 2.98921C36.1655 1.33333 34.7811 0.0221558 33.0954 0.0221558C31.3318 0.0221558 29.897 1.45695 29.897 3.22061V8.52232C29.897 9.02532 30.3048 9.43311 30.8078 9.43311C31.3108 9.43311 31.7186 9.02532 31.7186 8.52232V3.22061C31.7186 2.46137 32.3362 1.84374 33.0954 1.84374C33.8546 1.84374 34.4722 2.46137 34.4722 3.22061V17.8091V20.4599C34.4722 21.2192 33.8546 21.8368 33.0954 21.8368C32.3362 21.8368 31.7186 21.2192 31.7186 20.4599V15.1582C31.7186 14.6552 31.3108 14.2474 30.8078 14.2474H18.5235C18.0205 14.2474 17.6127 14.6552 17.6127 15.1582C17.6127 15.6612 18.0205 16.069 18.5235 16.069H29.897V20.4599C29.897 22.2236 31.3318 23.6584 33.0954 23.6584C34.7811 23.6584 36.1655 22.3472 36.2845 20.6913C36.7041 20.8939 37.1743 21.0075 37.6706 21.0075C39.3665 21.0075 40.7577 19.6806 40.8621 18.0106C41.2811 18.2125 41.7505 18.3258 42.2459 18.3258C44.0095 18.3258 45.4443 16.891 45.4443 15.1274V8.5531C45.4443 6.78951 44.0095 5.35477 42.2459 5.35477ZM39.0476 17.8091C39.0476 18.5683 38.4299 19.186 37.6707 19.186C36.9115 19.186 36.2938 18.5683 36.2938 17.8091V5.87143C36.2938 5.1122 36.9115 4.49456 37.6707 4.49456C38.4299 4.49456 39.0476 5.1122 39.0476 5.87143V17.8091ZM42.2459 16.5042C43.0051 16.5042 43.6228 15.8865 43.6228 15.1274V8.5531C43.6228 7.79399 43.0051 7.17635 42.2459 7.17635C41.4867 7.17635 40.8691 7.79399 40.8691 8.5531V15.1274C40.8691 15.8865 41.4867 16.5042 42.2459 16.5042Z" fill="#EE4D64"/>
<path fill-rule="evenodd" clip-rule="evenodd" d="M14.9576 14.2474C14.4546 14.2474 14.0468 14.6552 14.0468 15.1582V20.4599C14.0468 21.2192 13.4292 21.8368 12.67 21.8368C11.9107 21.8368 11.2931 21.2192 11.2931 20.4599V17.8091V5.87143V3.22061C11.2931 2.46137 11.9107 1.84374 12.67 1.84374C13.4292 1.84374 14.0468 2.46137 14.0468 3.22061V8.52232C14.0468 9.02532 14.4546 9.43311 14.9576 9.43311H27.242C27.745 9.43311 28.1528 9.02532 28.1528 8.52232C28.1528 8.01932 27.745 7.61153 27.242 7.61153H15.8684V3.22061C15.8684 1.45695 14.4336 0.0221558 12.67 0.0221558C10.9842 0.0221558 9.59987 1.33333 9.4808 2.98921C9.06123 2.78659 8.59096 2.67298 8.09464 2.67298C6.39875 2.67298 5.00761 3.99994 4.90317 5.6699C4.4842 5.46801 4.01478 5.35477 3.51937 5.35477C1.75572 5.35477 0.320923 6.78957 0.320923 8.55322V15.1274C0.320923 16.891 1.75572 18.3257 3.51937 18.3257C4.01478 18.3257 4.4842 18.2125 4.90317 18.0106C5.00761 19.6806 6.39875 21.0075 8.09464 21.0075C8.59096 21.0075 9.06117 20.8939 9.4808 20.6913C9.59987 22.3471 10.9842 23.6583 12.67 23.6583C14.4336 23.6583 15.8684 22.2235 15.8684 20.4599V15.1581C15.8684 14.6552 15.4607 14.2474 14.9576 14.2474ZM3.5195 16.5042C2.76032 16.5042 2.14262 15.8865 2.14262 15.1274V8.55322C2.14262 7.79399 2.76026 7.17635 3.5195 7.17635C4.27867 7.17635 4.89631 7.79399 4.89631 8.55322V15.1274C4.89625 15.8865 4.27861 16.5042 3.5195 16.5042ZM6.71783 17.8091C6.71783 18.5683 7.33552 19.186 8.0947 19.186C8.85393 19.186 9.47157 18.5683 9.47157 17.8091V5.87143C9.47157 5.1122 8.85393 4.49456 8.0947 4.49456C7.33546 4.49456 6.71783 5.1122 6.71783 5.87143V17.8091Z" fill="#EE4D64"/>
<path d="M14.0443 11.8935V12.1988C14.0443 12.7018 14.452 13.1096 14.955 13.1096C15.458 13.1096 15.8658 12.7018 15.8658 12.1988V11.8935C15.8658 11.3905 15.458 10.9827 14.955 10.9827C14.452 10.9827 14.0443 11.3905 14.0443 11.8935Z" fill="#EE4D64"/>
<path d="M31.7187 11.7922V11.4868C31.7187 10.9838 31.3108 10.576 30.8079 10.576C30.3048 10.576 29.8971 10.9838 29.8971 11.4868V11.7922C29.8971 12.2952 30.3048 12.703 30.8079 12.703C31.3109 12.703 31.7187 12.2952 31.7187 11.7922Z" fill="#EE4D64"/>
</g>
<defs>
<clipPath id="clip0_205_4">
<rect width="135" height="24" fill="white"/>
</clipPath>
</defs>
</svg>
